<svg xmlns="http://www.w3.org/2000/svg" viewBox="0 0 512 512" role="img" aria-label="The Local Record">
  <rect width="512" height="512" rx="96" fill="#183f47"/>
  <path d="M144 126h224c16 0 29 13 29 29v202c0 16-13 29-29 29H144c-16 0-29-13-29-29V155c0-16 13-29 29-29Z" fill="#fbf7ef"/>
  <path d="M167 180h178M167 230h178M167 280h132" fill="none" stroke="#183f47" stroke-width="28" stroke-linecap="round"/>
  <path d="M349 325c0 39-50 72-50 72s-50-33-50-72a50 50 0 1 1 100 0Z" fill="#b45d3d"/>
  <circle cx="299" cy="325" r="18" fill="#fbf7ef"/>
</svg>
