<svg width="1600" height="620" viewBox="0 0 1600 620" fill="none" xmlns="http://www.w3.org/2000/svg">
  <defs>
    <linearGradient id="sky" x1="0" y1="0" x2="0" y2="620" gradientUnits="userSpaceOnUse">
      <stop stop-color="#FBF6EC"/>
      <stop offset="1" stop-color="#EFE8DB"/>
    </linearGradient>
    <linearGradient id="mist" x1="0" y1="136" x2="0" y2="458" gradientUnits="userSpaceOnUse">
      <stop stop-color="#FFFFFF" stop-opacity="0.86"/>
      <stop offset="1" stop-color="#FFFFFF" stop-opacity="0.12"/>
    </linearGradient>
    <filter id="grain" x="-20%" y="-20%" width="140%" height="140%">
      <feTurbulence type="fractalNoise" baseFrequency="0.6" numOctaves="2" stitchTiles="stitch" />
      <feColorMatrix type="saturate" values="0"/>
      <feComponentTransfer>
        <feFuncA type="table" tableValues="0 0.08"/>
      </feComponentTransfer>
    </filter>
    <linearGradient id="hillFade" x1="0" y1="0" x2="1600" y2="0" gradientUnits="userSpaceOnUse">
      <stop stop-color="#BFD1BB"/>
      <stop offset="0.45" stop-color="#CAD5BE"/>
      <stop offset="1" stop-color="#C7D7CC"/>
    </linearGradient>
  </defs>

  <rect width="1600" height="620" fill="url(#sky)"/>

  <path d="M0 64C145 48 303 28 454 40C615 52 731 92 909 90C1081 88 1241 41 1600 25V0H0V64Z" fill="#F5EEE1"/>
  <path d="M0 98C188 115 348 88 501 107C671 128 785 172 966 166C1176 159 1351 87 1600 73V33C1381 49 1178 96 960 102C749 108 578 52 392 47C271 44 144 53 0 74V98Z" fill="#E8E0D2" fill-opacity="0.88"/>

  <path d="M0 121C147 138 286 161 430 151C594 140 721 88 890 95C1081 102 1246 170 1600 130V86C1282 123 1088 139 895 123C711 108 576 145 412 155C274 164 129 151 0 138V121Z" fill="#D6DBD0" fill-opacity="0.62"/>
  <path d="M0 184C136 164 281 164 418 192C541 217 662 253 806 246C986 238 1116 177 1282 181C1384 183 1480 210 1600 206V141C1479 171 1368 164 1261 159C1095 152 964 207 803 212C653 216 548 180 425 156C277 127 142 132 0 155V184Z" fill="#C9D0C1" fill-opacity="0.72"/>
  <path d="M0 248C129 232 214 253 344 294C466 333 598 370 757 369C923 368 1064 330 1178 311C1308 289 1422 289 1600 322V221C1482 216 1387 194 1280 198C1115 204 989 267 800 270C646 273 539 237 408 205C258 169 145 167 0 198V248Z" fill="url(#hillFade)" fill-opacity="0.88"/>

  <path d="M0 324C152 306 272 357 388 396C493 431 591 458 738 460C894 462 1019 437 1135 425C1279 410 1419 411 1600 454V620H0V324Z" fill="#D0B89A" fill-opacity="0.14"/>

  <g fill="#A8B796" fill-opacity="0.84">
    <ellipse cx="65" cy="299" rx="92" ry="86"/>
    <ellipse cx="184" cy="313" rx="104" ry="95"/>
    <ellipse cx="314" cy="301" rx="108" ry="93"/>
    <ellipse cx="448" cy="297" rx="110" ry="92"/>
    <ellipse cx="584" cy="285" rx="102" ry="89"/>
    <ellipse cx="731" cy="296" rx="106" ry="91"/>
    <ellipse cx="883" cy="286" rx="112" ry="96"/>
    <ellipse cx="1031" cy="301" rx="107" ry="93"/>
    <ellipse cx="1171" cy="293" rx="112" ry="95"/>
    <ellipse cx="1317" cy="301" rx="102" ry="91"/>
    <ellipse cx="1456" cy="294" rx="107" ry="93"/>
    <ellipse cx="1575" cy="302" rx="88" ry="81"/>
  </g>

  <g fill="#B7C19E" fill-opacity="0.8">
    <ellipse cx="72" cy="342" rx="96" ry="88"/>
    <ellipse cx="206" cy="360" rx="114" ry="95"/>
    <ellipse cx="346" cy="362" rx="110" ry="97"/>
    <ellipse cx="482" cy="349" rx="106" ry="92"/>
    <ellipse cx="636" cy="356" rx="112" ry="96"/>
    <ellipse cx="790" cy="351" rx="108" ry="93"/>
    <ellipse cx="954" cy="360" rx="111" ry="97"/>
    <ellipse cx="1111" cy="354" rx="107" ry="95"/>
    <ellipse cx="1267" cy="359" rx="113" ry="98"/>
    <ellipse cx="1433" cy="356" rx="112" ry="97"/>
  </g>

  <g fill="#C4AE7C" fill-opacity="0.66">
    <polygon points="188,438 251,432 278,456 210,462"/>
    <polygon points="305,426 374,419 396,444 326,450"/>
    <polygon points="420,412 486,407 507,433 438,438"/>
    <polygon points="739,429 808,423 833,450 761,455"/>
    <polygon points="1041,420 1112,414 1137,441 1063,446"/>
    <polygon points="1247,434 1315,429 1344,457 1270,462"/>
    <polygon points="1409,418 1475,412 1502,440 1432,446"/>
  </g>

  <g fill="#CFC1AC" fill-opacity="0.92">
    <polygon points="191,441 249,435 249,526 182,532"/>
    <polygon points="309,429 371,423 371,520 301,526"/>
    <polygon points="424,416 484,410 484,510 414,516"/>
    <polygon points="742,432 804,426 804,522 734,528"/>
    <polygon points="1044,423 1108,417 1108,520 1038,526"/>
    <polygon points="1251,437 1312,431 1312,538 1241,544"/>
    <polygon points="1412,421 1472,415 1472,517 1402,523"/>
  </g>

  <rect y="302" width="1600" height="204" fill="url(#mist)"/>
  <rect width="1600" height="620" fill="#FFFFFF" opacity="0.12"/>
  <rect width="1600" height="620" filter="url(#grain)"/>
</svg>
